HIERARCHY
ROOT Hips
{
    OFFSET   0.000000   0.000000   0.000000
    CHANNELS 6 Xposition Yposition Zposition Zrotation Xrotation Yrotation
    JOINT Chest
    {
        OFFSET   0.000000   8.007240   0.000000
        CHANNELS 3 Zrotation Xrotation Yrotation
        JOINT Chest2
        {
            OFFSET   0.000000  22.077100   0.000000
            CHANNELS 3 Zrotation Xrotation Yrotation
            JOINT Neck
            {
                OFFSET   0.000000  23.254800   0.000000
                CHANNELS 3 Zrotation Xrotation Yrotation
                JOINT Head
                {
                    OFFSET   0.000000  14.370000   1.956600
                    CHANNELS 3 Zrotation Xrotation Yrotation
                    End Site
                    {
                        OFFSET   0.000000  19.566000   0.000000
                    }
                }
            }
            JOINT LeftCollar
            {
                OFFSET   3.911900  19.017000  -0.467064
                CHANNELS 3 Zrotation Xrotation Yrotation
                JOINT LeftShoulder
                {
                    OFFSET  10.383700   0.000000   0.000000
                    CHANNELS 3 Zrotation Xrotation Yrotation
                    JOINT LeftElbow
                    {
                        OFFSET  26.662100   0.001476   0.000517
                        CHANNELS 3 Zrotation Xrotation Yrotation
                        JOINT LeftWrist
                        {
                            OFFSET  28.869000  -0.000025  -0.000106
                            CHANNELS 3 Zrotation Xrotation Yrotation
                            JOINT LeftFinger0
                            {
                                OFFSET   2.044660  -2.323460   3.252850
                                CHANNELS 3 Zrotation Xrotation Yrotation
                                JOINT LeftFinger01
                                {
                                    OFFSET   3.088130   0.000000   0.000000
                                    CHANNELS 3 Zrotation Xrotation Yrotation
                                    JOINT LeftFinger02
                                    {
                                        OFFSET   2.639460   0.000000   0.000000
                                        CHANNELS 3 Zrotation Xrotation Yrotation
                                        End Site
                                        {
                                            OFFSET   2.582190   0.000000   0.000000
                                        }
                                    }
                                }
                            }
                            JOINT LeftFinger1
                            {
                                OFFSET   8.364480   0.000000   3.252850
                                CHANNELS 3 Zrotation Xrotation Yrotation
                                JOINT LeftFinger11
                                {
                                    OFFSET   4.646930   0.000000   0.000000
                                    CHANNELS 3 Zrotation Xrotation Yrotation
                                    JOINT LeftFinger12
                                    {
                                        OFFSET   2.323460   0.000000   0.000000
                                        CHANNELS 3 Zrotation Xrotation Yrotation
                                        End Site
                                        {
                                            OFFSET   2.273050   0.000000   0.000000
                                        }
                                    }
                                }
                            }
                            JOINT LeftFinger2
                            {
                                OFFSET   8.364490   0.000015   1.078090
                                CHANNELS 3 Zrotation Xrotation Yrotation
                                JOINT LeftFinger21
                                {
                                    OFFSET   5.111620   0.000000   0.000000
                                    CHANNELS 3 Zrotation Xrotation Yrotation
                                    JOINT LeftFinger22
                                    {
                                        OFFSET   2.788160   0.000016   0.000000
                                        CHANNELS 3 Zrotation Xrotation Yrotation
                                        End Site
                                        {
                                            OFFSET   2.727660   0.000000   0.000000
                                        }
                                    }
                                }
                            }
                            JOINT LeftFinger3
                            {
                                OFFSET   7.899780   0.000017  -1.078090
                                CHANNELS 3 Zrotation Xrotation Yrotation
                                JOINT LeftFinger31
                                {
                                    OFFSET   4.646930   0.000000   0.000000
                                    CHANNELS 3 Zrotation Xrotation Yrotation
                                    JOINT LeftFinger32
                                    {
                                        OFFSET   2.323470   0.000000   0.000000
                                        CHANNELS 3 Zrotation Xrotation Yrotation
                                        End Site
                                        {
                                            OFFSET   2.273050   0.000000   0.000000
                                        }
                                    }
                                }
                            }
                            JOINT LeftFinger4
                            {
                                OFFSET   7.435090   0.000000  -3.252850
                                CHANNELS 3 Zrotation Xrotation Yrotation
                                JOINT LeftFinger41
                                {
                                    OFFSET   3.717550   0.000000   0.000000
                                    CHANNELS 3 Zrotation Xrotation Yrotation
                                    JOINT LeftFinger42
                                    {
                                        OFFSET   1.858770   0.000000   0.000000
                                        CHANNELS 3 Zrotation Xrotation Yrotation
                                        End Site
                                        {
                                            OFFSET   1.818440   0.000000   0.000000
                                        }
                                    }
                                }
                            }
                        }
                    }
                }
            }
            JOINT RightCollar
            {
                OFFSET  -3.911900  19.017000  -0.467063
                CHANNELS 3 Zrotation Xrotation Yrotation
                JOINT RightShoulder
                {
                    OFFSET -10.383700   0.000019   0.000000
                    CHANNELS 3 Zrotation Xrotation Yrotation
                    JOINT RightElbow
                    {
                        OFFSET -26.662100   0.001175   0.000102
                        CHANNELS 3 Zrotation Xrotation Yrotation
                        JOINT RightWrist
                        {
                            OFFSET -28.869000   0.000016  -0.000079
                            CHANNELS 3 Zrotation Xrotation Yrotation
                            JOINT RightFinger0
                            {
                                OFFSET  -2.044660  -2.323490   3.252850
                                CHANNELS 3 Zrotation Xrotation Yrotation
                                JOINT RightFinger01
                                {
                                    OFFSET  -3.088140   0.000000   0.000000
                                    CHANNELS 3 Zrotation Xrotation Yrotation
                                    JOINT RightFinger02
                                    {
                                        OFFSET  -2.639460   0.000000   0.000000
                                        CHANNELS 3 Zrotation Xrotation Yrotation
                                        End Site
                                        {
                                            OFFSET  -2.582190   0.000000   0.000000
                                        }
                                    }
                                }
                            }
                            JOINT RightFinger1
                            {
                                OFFSET  -8.364480   0.000000   3.252850
                                CHANNELS 3 Zrotation Xrotation Yrotation
                                JOINT RightFinger11
                                {
                                    OFFSET  -4.646930   0.000000   0.000000
                                    CHANNELS 3 Zrotation Xrotation Yrotation
                                    JOINT RightFinger12
                                    {
                                        OFFSET  -2.323470   0.000000   0.000000
                                        CHANNELS 3 Zrotation Xrotation Yrotation
                                        End Site
                                        {
                                            OFFSET  -2.273050   0.000000   0.000000
                                        }
                                    }
                                }
                            }
                            JOINT RightFinger2
                            {
                                OFFSET  -8.364480   0.000000   1.078090
                                CHANNELS 3 Zrotation Xrotation Yrotation
                                JOINT RightFinger21
                                {
                                    OFFSET  -5.111620   0.000000   0.000000
                                    CHANNELS 3 Zrotation Xrotation Yrotation
                                    JOINT RightFinger22
                                    {
                                        OFFSET  -2.788160   0.000000   0.000000
                                        CHANNELS 3 Zrotation Xrotation Yrotation
                                        End Site
                                        {
                                            OFFSET  -2.727660   0.000000   0.000000
                                        }
                                    }
                                }
                            }
                            JOINT RightFinger3
                            {
                                OFFSET  -7.899780   0.000000  -1.078090
                                CHANNELS 3 Zrotation Xrotation Yrotation
                                JOINT RightFinger31
                                {
                                    OFFSET  -4.646930   0.000000   0.000000
                                    CHANNELS 3 Zrotation Xrotation Yrotation
                                    JOINT RightFinger32
                                    {
                                        OFFSET  -2.323470   0.000000   0.000000
                                        CHANNELS 3 Zrotation Xrotation Yrotation
                                        End Site
                                        {
                                            OFFSET  -2.273050   0.000000   0.000000
                                        }
                                    }
                                }
                            }
                            JOINT RightFinger4
                            {
                                OFFSET  -7.435090   0.000000  -3.252850
                                CHANNELS 3 Zrotation Xrotation Yrotation
                                JOINT RightFinger41
                                {
                                    OFFSET  -3.717550   0.000000   0.000000
                                    CHANNELS 3 Zrotation Xrotation Yrotation
                                    JOINT RightFinger42
                                    {
                                        OFFSET  -1.858770   0.000000   0.000000
                                        CHANNELS 3 Zrotation Xrotation Yrotation
                                        End Site
                                        {
                                            OFFSET  -1.818440   0.000000   0.000000
                                        }
                                    }
                                }
                            }
                        }
                    }
                }
            }
        }
    }
    JOINT LeftHip
    {
        OFFSET   9.783040   0.000000   0.000000
        CHANNELS 3 Zrotation Xrotation Yrotation
        JOINT LeftKnee
        {
            OFFSET   0.000032 -41.789100  -0.002222
            CHANNELS 3 Zrotation Xrotation Yrotation
            JOINT LeftAnkle
            {
                OFFSET   0.000087 -41.133200  -0.000135
                CHANNELS 3 Zrotation Xrotation Yrotation
                JOINT LeftToe
                {
                    OFFSET   0.000000  -6.358960  14.674500
                    CHANNELS 3 Zrotation Xrotation Yrotation
                    End Site
                    {
                        OFFSET   0.000000   0.000000   3.913200
                    }
                }
            }
        }
    }
    JOINT RightHip
    {
        OFFSET  -9.783040   0.000000   0.000000
        CHANNELS 3 Zrotation Xrotation Yrotation
        JOINT RightKnee
        {
            OFFSET   0.000047 -41.789100  -0.000896
            CHANNELS 3 Zrotation Xrotation Yrotation
            JOINT RightAnkle
            {
                OFFSET  -0.000117 -41.133300  -0.000248
                CHANNELS 3 Zrotation Xrotation Yrotation
                JOINT RightToe
                {
                    OFFSET   0.000000  -6.358970  14.674500
                    CHANNELS 3 Zrotation Xrotation Yrotation
                    End Site
                    {
                        OFFSET   0.000000   0.000000   3.913200
                    }
                }
            }
        }
    }
}
MOTION
Frames: 6
Frame Time:   0.016667
 -7.331580  88.769700   0.255267  -5.345220 -17.384700  -6.701540   3.808030   8.761500   0.482648   7.677860  17.535600   0.373932   4.342010  -0.403987   0.030648   7.134360  -0.805126  -5.080680  -5.119780  -2.332500  -5.663340 -67.129200  29.710300 -17.218900  -2.787020  -7.118620  -8.333440   9.062440  -4.288090  16.705100  43.464800  30.348400 -66.967100 -20.233400   0.115627   0.115638  -5.116640   0.065870   0.048529 -35.604200   6.586530  -9.100970 -29.560100   0.000317   0.001125 -20.692100  -0.002537  -0.011246 -30.288500   1.932520  -3.304430 -45.516400  -0.000570   0.002342 -30.313900   0.013810   0.001181 -28.412300  -4.899800   8.964990 -43.126800   0.007471   0.002418 -28.722500   0.011137   0.001511 -39.413300  -6.520340   7.867390 -59.793300   0.002054  -0.000655 -39.822400  -0.004792  -0.004021   0.707880 -11.111500  12.207700  -5.406840  -8.268310 100.741000 -31.337700  12.239000  69.807200 -23.470700  40.061600  44.199300 -41.493800  30.080500  67.918900  22.371400   0.002800  -0.001495   6.185690   0.009405  -0.000404   3.963030   0.461182   6.620350   3.264300  -0.004968   0.000464   2.285010  -0.013476  -0.000454   5.217730   0.114923   1.254010   5.218980  -0.013885   0.000000   3.475840  -0.001581  -0.000000   5.344290  -0.150191  -1.604230   5.346420  -0.004511  -0.000201   3.560710  -0.005200  -0.000313   8.582650  -1.228080  -8.084360  13.004200  -0.000687  -0.001049   8.660770  -0.000677  -0.000456   6.422880  13.661700   1.228070   6.001460  16.782700   1.949240  -8.337550 -10.178200  12.950400   0.000000   0.000000   0.000000   7.593950  15.425500  -3.849730   1.725020   6.796810  -1.335850  -6.570380  -4.834750   7.382230   0.000000   0.000000   0.000000
 -7.296960  88.772900   0.251760  -5.328110 -17.397900  -6.629800   3.775360   8.785860   0.518768   7.606130  17.586700   0.450914   4.293140  -0.433868   0.032974   7.054110  -0.865061  -4.938200  -5.155210  -2.333900  -5.660380 -67.091000  29.739400 -17.251600  -2.784230  -7.073710  -8.437150   9.094380  -4.292390  16.656400  43.346200  30.264400 -66.847100 -20.366500   0.059495   0.058489  -5.183230   0.032832   0.009251 -35.598300   6.560120  -9.071490 -29.553300   0.000394   0.001207 -20.687300  -0.002606  -0.011431 -30.339800   1.895290  -3.234030 -45.589100  -0.000698   0.002422 -30.362300   0.013830   0.001289 -28.411800  -4.899600   8.969120 -43.053400   0.007529   0.002419 -28.673600   0.011248   0.001511 -39.401700  -6.520230   7.873580 -59.776300   0.001985  -0.000650 -39.811100  -0.004806  -0.004175   0.718342 -11.110500  12.236400  -5.473730  -8.209110 100.014000 -31.498100  12.207500  69.608500 -23.639900  40.185100  44.403000 -41.358000  29.991400  68.001200  22.402700   0.002841  -0.001628   6.201370   0.009403  -0.000425   4.062680   0.471388   6.598520   3.346190  -0.004994   0.000401   2.342340  -0.013489  -0.000439   5.287940   0.114943   1.251790   5.289140  -0.013999  -0.000039   3.522570  -0.001491  -0.000045   5.367070  -0.154578  -1.646220   5.369070  -0.004407  -0.000171   3.575790  -0.005094  -0.000313   8.652730  -1.241290  -8.109690  13.110800  -0.000706  -0.001022   8.731760  -0.000689  -0.000468   6.408620  13.644300   1.228690   5.999850  16.782100   1.924100  -8.326750 -10.166600  12.917100  -0.000000   0.000000   0.000000   7.581080  15.432000  -3.890070   1.724520   6.790170  -1.359910  -6.549610  -4.843800   7.381550   0.000000   0.000000  -0.000000
 -7.254370  88.777000   0.248406  -5.307330 -17.407100  -6.556350   3.735930   8.811250   0.554077   7.520730  17.639900   0.527310   4.250870  -0.460642   0.034789   6.984700  -0.918858  -4.785520  -5.189860  -2.335300  -5.657430 -67.054400  29.773800 -17.276000  -2.772690  -7.040960  -8.519090   9.127890  -4.296630  16.610800  43.249400  30.203600 -66.759600 -20.458600   0.003363   0.001339  -5.229300  -0.000206  -0.030028 -35.602800   6.529040  -9.023700 -29.551500   0.000470   0.001254 -20.686100  -0.002664  -0.011603 -30.389100   1.874340  -3.192170 -45.661800  -0.000822   0.002469 -30.410700   0.013846   0.001355 -28.411600  -4.899560   8.971060 -43.011500   0.007583   0.002420 -28.645700   0.011352   0.001510 -39.396100  -6.520110   7.877090 -59.768200   0.001917  -0.000648 -39.805700  -0.004821  -0.004334   0.726667 -11.109400  12.265000  -5.550230  -8.185000  99.262000 -31.624300  12.196800  69.404700 -23.884400  40.402200  44.633800 -41.291800  29.945200  68.037600  22.436900   0.002881  -0.001763   6.218450   0.009402  -0.000449   4.104650   0.472965   6.558310   3.380460  -0.005022   0.000337   2.366320  -0.013502  -0.000428   5.305620   0.114947   1.236220   5.306820  -0.014109  -0.000095   3.534350  -0.001401  -0.000089   5.369970  -0.161193  -1.716890   5.372300  -0.004303  -0.000140   3.577950  -0.004987  -0.000313   8.661580  -1.250650  -8.156600  13.126000  -0.000730  -0.001000   8.741900  -0.000704  -0.000480   6.385960  13.627800   1.229200   5.995810  16.777000   1.902330  -8.313540 -10.146100  12.882200  -0.000000   0.000000   0.000000   7.559370  15.435900  -3.942920   1.722070   6.777710  -1.380290  -6.528320  -4.849380   7.381090   0.000000   0.000000  -0.000000
 -7.203290  88.783000   0.243357  -5.278900 -17.409500  -6.474850   3.689420   8.841090   0.595291   7.419970  17.702100   0.616634   4.219920  -0.488610   0.035685   6.934070  -0.974912  -4.649960  -5.221240  -2.350080  -5.690550 -67.008500  29.817000 -17.298700  -2.765930  -7.071930  -8.568180   9.171800  -4.283000  16.574900  43.315500  30.263500 -66.815400 -20.424600   0.174634   0.199344  -5.212130   0.089884   0.080419 -35.634000   6.505480  -8.981200 -29.573100   0.000538  -0.004802 -20.701200  -0.002715  -0.011797 -30.368300   1.882200  -3.209140 -45.631300  -0.000944  -0.009148 -30.390400   0.013861  -0.005022 -28.411800  -4.899630   8.971050 -43.046200   0.007629  -0.007768 -28.668800   0.011472  -0.004191 -39.426300  -6.519960   7.877090 -59.813700   0.001845  -0.000645 -39.836000  -0.004834  -0.004499   0.729587 -11.103200  12.253400  -5.694940  -8.237640  98.490300 -31.753400  12.176800  69.207100 -24.093300  40.540300  44.773800 -41.279200  29.876700  67.898400  22.460200   0.002919  -0.001899   6.230120   0.009402  -0.000474   4.087770   0.468095   6.506660   3.366100  -0.005067   0.000271   2.356280  -0.013522  -0.000421   5.274960   0.110179   1.182990   5.275880  -0.014204  -0.000118   3.513740  -0.001333  -0.000149   5.308480  -0.165727  -1.789580   5.310910  -0.004208  -0.000105   3.537070  -0.004888  -0.000318   8.597010  -1.248850  -8.217620  13.030000  -0.000737  -0.000989   8.678000  -0.000732  -0.000486   6.348280  13.610200   1.229420   5.998460  16.763900   1.867320  -8.295330 -10.126600  12.854100  -0.000000   0.000000   0.000000   7.517680  15.434800  -3.987460   1.722160   6.762760  -1.400580  -6.499110  -4.848830   7.379700  -0.000000   0.000000   0.000000
 -7.144560  88.789500   0.238872  -5.250600 -17.410400  -6.394320   3.641530   8.873860   0.638230   7.316120  17.770300   0.709573   4.186510  -0.515860   0.036147   6.879420  -1.029550  -4.522220  -5.258580  -2.365870  -5.746190 -66.962600  29.843600 -17.310100  -2.759300  -7.115250  -8.603110   9.201590  -4.257700  16.538900  43.377500  30.331900 -66.863100 -20.391800   0.345898   0.399435  -5.195310   0.179975   0.192900 -35.663200   6.487430  -8.947780 -29.594600   0.000604  -0.010883 -20.716300  -0.002754  -0.011908 -30.336200   1.890060  -3.226100 -45.584200  -0.001066  -0.020765 -30.359100   0.013868  -0.011400 -28.412000  -4.899790   8.970960 -43.081000   0.007670  -0.017956 -28.691900   0.011542  -0.009931 -39.456500  -6.519750   7.877070 -59.859100   0.001774  -0.000643 -39.866200  -0.004846  -0.004668   0.735916 -11.084700  12.231000  -5.823450  -8.342380  97.715600 -31.803200  12.213700  69.009300 -24.248100  40.604700  44.845200 -41.222500  29.761200  67.694900  22.485400   0.002956  -0.002037   6.242720   0.009403  -0.000501   4.070740   0.463207   6.473380   3.351750  -0.005112   0.000195   2.346230  -0.013543  -0.000409   5.244260   0.105411   1.143090   5.244930  -0.014298  -0.000132   3.493130  -0.001270  -0.000213   5.247140  -0.168031  -1.833610   5.249520  -0.004111  -0.000069   3.496190  -0.004791  -0.000330   8.532920  -1.247110  -8.257070  12.934100  -0.000745  -0.000983   8.614100  -0.000760  -0.000493   6.306680  13.596500   1.229440   5.999260  16.741300   1.835920  -8.272220 -10.108200  12.828400  -0.000000   0.000000   0.000000   7.468500  15.432400  -4.024410   1.722880   6.746790  -1.420880  -6.463620  -4.844910   7.376630  -0.000000   0.000000  -0.000000
 -7.079040  88.794900   0.236962  -5.233960 -17.408500  -6.322350   3.600640   8.911220   0.681367   7.226490  17.847500   0.801565   4.134620  -0.542766   0.036533   6.794280  -1.083620  -4.402540  -5.326360  -2.369400  -5.795870 -66.915400  29.824300 -17.301100  -2.752800  -7.131040  -8.641920   9.199590  -4.226560  16.490000  43.371400  30.367800 -66.825100 -20.399800   0.342474   0.401863  -5.199330   0.178272   0.195273 -35.656500   6.479750  -8.939240 -29.588200   0.000672  -0.010912 -20.711700  -0.002783  -0.010448 -30.311800   1.878370  -3.209480 -45.548000  -0.001189  -0.020764 -30.335000   0.011970  -0.011397 -28.412200  -4.899980   8.970760 -43.080500   0.007714  -0.017952 -28.691600   0.010062  -0.009978 -39.444700  -6.519580   7.876870 -59.841300   0.001743  -0.000642 -39.854300  -0.004855  -0.004841   0.757956 -11.058700  12.206800  -5.840220  -8.512180  96.941000 -31.705200  12.497900  68.873200 -24.520300  40.564700  44.869300 -41.068700  29.597800  67.641400  22.533800   0.002994  -0.002179   6.266920   0.009402  -0.000533   4.216990   0.485992   6.551200   3.472980  -0.005136   0.000096   2.431090  -0.013563  -0.000375   5.373280   0.116225   1.228290   5.374510  -0.014410  -0.000146   3.579440  -0.001198  -0.000272   5.344770  -0.164739  -1.767300   5.347130  -0.003994  -0.000034   3.561190  -0.004690  -0.000348   8.662510  -1.256110  -8.203910  13.128200  -0.000766  -0.000974   8.743400  -0.000773  -0.000507   6.274220  13.592600   1.219450   5.990120  16.707700   1.824580  -8.243400 -10.096200  12.802800  -0.000000   0.000000   0.000000   7.420660  15.428200  -4.042430   1.723810   6.734200  -1.442350  -6.420240  -4.832530   7.368080  -0.000000   0.000000   0.000000
